# xmcd
#
# Track frame offsets:
#	150
#	13438
#	24002
#	36868
#	51082
#	66622
#	78742
#	92685
#	104544
#	121161
#	135778
#	151686
#	165974
#	176387
#
# Disc length: 2538 seconds
#
# Revision: 0
# Processed by: cddbd v1.4PL0 Copyright (c) Steve Scherf et al.
# Submitted via: audiograbber 1.81.00
#
DISCID=a509e80e
DTITLE=Various Artist - The Best of Country - CD 2
DYEAR=1900
DGENRE=Country
TTITLE0=The Nashville Teens - Tobacco Road
TTITLE1=Conway Twitty - It's only make believe
TTITLE2=Billi Jo Spears - '57 Chevrolet
TTITLE3=George Jones - A ggod Year for the roses
TTITLE4=Don Williams - Elise
TTITLE5=Dave and Sugar - The door is always open
TTITLE6=Barbara Fairchild - Teddy Bear Song
TTITLE7=Jim Reeves - Welcome to my World
TTITLE8=Jill Morris - Shot full of Love
TTITLE9=Glen Campbell - Rhinestone Cowboy
TTITLE10=Radney Foster - Nobody Wins
TTITLE11=Freddy Fender - Wasted Days and Wasted Nights
TTITLE12=Ferlin Husky - Wings of a Dove
TTITLE13=Shania Twain - Wild and Wicked
EXTD=
EXTT0=
EXTT1=
EXTT2=
EXTT3=
EXTT4=
EXTT5=
EXTT6=
EXTT7=
EXTT8=
EXTT9=
EXTT10=
EXTT11=
EXTT12=
EXTT13=
PLAYORDER=
